<svg enable-background="new 0 0 406 406" height="406" viewBox="0 0 406 406" width="406" xmlns="http://www.w3.org/2000/svg"><path d="m0 0h406v406h-406z" fill="#fff"/><g stroke-width=".14"><path d="m196 28h14v14h-14z"/><path d="m210 28h14v14h-14z"/><path d="m154 42h14v14h-14z"/><path d="m182 42h14v14h-14z"/><path d="m210 42h14v14h-14z"/><path d="m224 42h14v14h-14z"/><path d="m238 42h14v14h-14z"/><path d="m252 42h14v14h-14z"/><path d="m140 56h14v14h-14z"/><path d="m154 56h14v14h-14z"/><path d="m168 56h14v14h-14z"/><path d="m196 56h14v14h-14z"/><path d="m224 56h14v14h-14z"/><path d="m238 56h14v14h-14z"/><path d="m252 56h14v14h-14z"/><path d="m140 70h14v14h-14z"/><path d="m154 70h14v14h-14z"/><path d="m182 70h14v14h-14z"/><path d="m196 70h14v14h-14z"/><path d="m210 70h14v14h-14z"/><path d="m224 70h14v14h-14z"/><path d="m238 70h14v14h-14z"/><path d="m252 70h14v14h-14z"/><path d="m140 84h14v14h-14z"/><path d="m168 84h14v14h-14z"/><path d="m224 84h14v14h-14z"/><path d="m252 84h14v14h-14z"/><path d="m140 98h14v14h-14z"/><path d="m168 98h14v14h-14z"/><path d="m196 98h14v14h-14z"/><path d="m210 98h14v14h-14z"/><path d="m238 98h14v14h-14z"/><path d="m140 112h14v14h-14z"/><path d="m168 112h14v14h-14z"/><path d="m196 112h14v14h-14z"/><path d="m224 112h14v14h-14z"/><path d="m252 112h14v14h-14z"/><path d="m140 126h14v14h-14z"/><path d="m154 126h14v14h-14z"/><path d="m182 126h14v14h-14z"/><path d="m196 126h14v14h-14z"/><path d="m224 126h14v14h-14z"/><path d="m28 140h14v14h-14z"/><path d="m56 140h14v14h-14z"/><path d="m70 140h14v14h-14z"/><path d="m84 140h14v14h-14z"/><path d="m98 140h14v14h-14z"/><path d="m112 140h14v14h-14z"/><path d="m154 140h14v14h-14z"/><path d="m210 140h14v14h-14z"/><path d="m224 140h14v14h-14z"/><path d="m238 140h14v14h-14z"/><path d="m252 140h14v14h-14z"/><path d="m280 140h14v14h-14z"/><path d="m294 140h14v14h-14z"/><path d="m308 140h14v14h-14z"/><path d="m322 140h14v14h-14z"/><path d="m336 140h14v14h-14z"/><path d="m28 154h14v14h-14z"/><path d="m56 154h14v14h-14z"/><path d="m126 154h14v14h-14z"/><path d="m154 154h14v14h-14z"/><path d="m182 154h14v14h-14z"/><path d="m210 154h14v14h-14z"/><path d="m252 154h14v14h-14z"/><path d="m266 154h14v14h-14z"/><path d="m294 154h14v14h-14z"/><path d="m350 154h14v14h-14z"/><path d="m28 168h14v14h-14z"/><path d="m42 168h14v14h-14z"/><path d="m56 168h14v14h-14z"/><path d="m98 168h14v14h-14z"/><path d="m112 168h14v14h-14z"/><path d="m140 168h14v14h-14z"/><path d="m168 168h14v14h-14z"/><path d="m210 168h14v14h-14z"/><path d="m224 168h14v14h-14z"/><path d="m238 168h14v14h-14z"/><path d="m266 168h14v14h-14z"/><path d="m280 168h14v14h-14z"/><path d="m308 168h14v14h-14z"/><path d="m322 168h14v14h-14z"/><path d="m350 168h14v14h-14z"/><path d="m364 168h14v14h-14z"/><path d="m28 182h14v14h-14z"/><path d="m42 182h14v14h-14z"/><path d="m56 182h14v14h-14z"/><path d="m84 182h14v14h-14z"/><path d="m154 182h14v14h-14z"/><path d="m196 182h14v14h-14z"/><path d="m224 182h14v14h-14z"/><path d="m252 182h14v14h-14z"/><path d="m266 182h14v14h-14z"/><path d="m280 182h14v14h-14z"/><path d="m364 182h14v14h-14z"/><path d="m42 196h14v14h-14z"/><path d="m56 196h14v14h-14z"/><path d="m112 196h14v14h-14z"/><path d="m182 196h14v14h-14z"/><path d="m196 196h14v14h-14z"/><path d="m210 196h14v14h-14z"/><path d="m224 196h14v14h-14z"/><path d="m266 196h14v14h-14z"/><path d="m280 196h14v14h-14z"/><path d="m308 196h14v14h-14z"/><path d="m336 196h14v14h-14z"/><path d="m350 196h14v14h-14z"/><path d="m364 196h14v14h-14z"/><path d="m28 210h14v14h-14z"/><path d="m56 210h14v14h-14z"/><path d="m84 210h14v14h-14z"/><path d="m98 210h14v14h-14z"/><path d="m224 210h14v14h-14z"/><path d="m266 210h14v14h-14z"/><path d="m294 210h14v14h-14z"/><path d="m322 210h14v14h-14z"/><path d="m350 210h14v14h-14z"/><path d="m28 224h14v14h-14z"/><path d="m56 224h14v14h-14z"/><path d="m84 224h14v14h-14z"/><path d="m98 224h14v14h-14z"/><path d="m112 224h14v14h-14z"/><path d="m126 224h14v14h-14z"/><path d="m140 224h14v14h-14z"/><path d="m154 224h14v14h-14z"/><path d="m182 224h14v14h-14z"/><path d="m196 224h14v14h-14z"/><path d="m210 224h14v14h-14z"/><path d="m224 224h14v14h-14z"/><path d="m238 224h14v14h-14z"/><path d="m252 224h14v14h-14z"/><path d="m280 224h14v14h-14z"/><path d="m294 224h14v14h-14z"/><path d="m308 224h14v14h-14z"/><path d="m322 224h14v14h-14z"/><path d="m350 224h14v14h-14z"/><path d="m364 224h14v14h-14z"/><path d="m28 238h14v14h-14z"/><path d="m56 238h14v14h-14z"/><path d="m70 238h14v14h-14z"/><path d="m154 238h14v14h-14z"/><path d="m182 238h14v14h-14z"/><path d="m238 238h14v14h-14z"/><path d="m252 238h14v14h-14z"/><path d="m294 238h14v14h-14z"/><path d="m308 238h14v14h-14z"/><path d="m364 238h14v14h-14z"/><path d="m28 252h14v14h-14z"/><path d="m84 252h14v14h-14z"/><path d="m98 252h14v14h-14z"/><path d="m112 252h14v14h-14z"/><path d="m154 252h14v14h-14z"/><path d="m182 252h14v14h-14z"/><path d="m196 252h14v14h-14z"/><path d="m210 252h14v14h-14z"/><path d="m224 252h14v14h-14z"/><path d="m238 252h14v14h-14z"/><path d="m252 252h14v14h-14z"/><path d="m266 252h14v14h-14z"/><path d="m280 252h14v14h-14z"/><path d="m294 252h14v14h-14z"/><path d="m308 252h14v14h-14z"/><path d="m336 252h14v14h-14z"/><path d="m140 266h14v14h-14z"/><path d="m154 266h14v14h-14z"/><path d="m168 266h14v14h-14z"/><path d="m196 266h14v14h-14z"/><path d="m210 266h14v14h-14z"/><path d="m252 266h14v14h-14z"/><path d="m308 266h14v14h-14z"/><path d="m322 266h14v14h-14z"/><path d="m154 280h14v14h-14z"/><path d="m252 280h14v14h-14z"/><path d="m280 280h14v14h-14z"/><path d="m308 280h14v14h-14z"/><path d="m336 280h14v14h-14z"/><path d="m350 280h14v14h-14z"/><path d="m364 280h14v14h-14z"/><path d="m140 294h14v14h-14z"/><path d="m182 294h14v14h-14z"/><path d="m224 294h14v14h-14z"/><path d="m252 294h14v14h-14z"/><path d="m308 294h14v14h-14z"/><path d="m322 294h14v14h-14z"/><path d="m350 294h14v14h-14z"/><path d="m364 294h14v14h-14z"/><path d="m140 308h14v14h-14z"/><path d="m154 308h14v14h-14z"/><path d="m168 308h14v14h-14z"/><path d="m182 308h14v14h-14z"/><path d="m196 308h14v14h-14z"/><path d="m210 308h14v14h-14z"/><path d="m224 308h14v14h-14z"/><path d="m238 308h14v14h-14z"/><path d="m252 308h14v14h-14z"/><path d="m266 308h14v14h-14z"/><path d="m280 308h14v14h-14z"/><path d="m294 308h14v14h-14z"/><path d="m308 308h14v14h-14z"/><path d="m336 308h14v14h-14z"/><path d="m140 322h14v14h-14z"/><path d="m154 322h14v14h-14z"/><path d="m182 322h14v14h-14z"/><path d="m196 322h14v14h-14z"/><path d="m266 322h14v14h-14z"/><path d="m280 322h14v14h-14z"/><path d="m308 322h14v14h-14z"/><path d="m322 322h14v14h-14z"/><path d="m336 322h14v14h-14z"/><path d="m350 322h14v14h-14z"/><path d="m364 322h14v14h-14z"/><path d="m140 336h14v14h-14z"/><path d="m154 336h14v14h-14z"/><path d="m168 336h14v14h-14z"/><path d="m196 336h14v14h-14z"/><path d="m224 336h14v14h-14z"/><path d="m238 336h14v14h-14z"/><path d="m322 336h14v14h-14z"/><path d="m336 336h14v14h-14z"/><path d="m364 336h14v14h-14z"/><path d="m168 350h14v14h-14z"/><path d="m224 350h14v14h-14z"/><path d="m238 350h14v14h-14z"/><path d="m252 350h14v14h-14z"/><path d="m266 350h14v14h-14z"/><path d="m280 350h14v14h-14z"/><path d="m294 350h14v14h-14z"/><path d="m308 350h14v14h-14z"/><path d="m322 350h14v14h-14z"/><path d="m364 350h14v14h-14z"/><path d="m140 364h14v14h-14z"/><path d="m154 364h14v14h-14z"/><path d="m168 364h14v14h-14z"/><path d="m210 364h14v14h-14z"/><path d="m224 364h14v14h-14z"/><path d="m266 364h14v14h-14z"/><path d="m280 364h14v14h-14z"/><path d="m294 364h14v14h-14z"/><path d="m308 364h14v14h-14z"/><path d="m322 364h14v14h-14z"/><path d="m336 364h14v14h-14z"/><path d="m350 364h14v14h-14z"/><path d="m364 364h14v14h-14z"/></g><g transform="matrix(.98 0 0 .98 28 28)"><path d="m15 15h70v70h-70z" fill="none"/><path d="m85 0h-70-15v15 70 15h15 70 15v-15-70-15zm0 85h-70v-70h70z"/></g><g transform="matrix(.98 0 0 .98 280 28)"><path d="m15 15h70v70h-70z" fill="none"/><path d="m85 0h-70-15v15 70 15h15 70 15v-15-70-15zm0 85h-70v-70h70z"/></g><g transform="matrix(.98 0 0 .98 28 280)"><path d="m15 15h70v70h-70z" fill="none"/><path d="m85 0h-70-15v15 70 15h15 70 15v-15-70-15zm0 85h-70v-70h70z"/></g><path d="m56 56h42v42h-42z" stroke-width=".42"/><path d="m308 56h42v42h-42z" stroke-width=".42"/><path d="m56 308h42v42h-42z" stroke-width=".42"/></svg>