<svg enable-background="new 0 0 1147 1147" height="1147" viewBox="0 0 1147 1147" width="1147" xmlns="http://www.w3.org/2000/svg"><path d="m0 0h1147v1147h-1147z" fill="#fff"/><g stroke-width=".31"><path d="m310 62h31v31h-31z"/><path d="m372 62h31v31h-31z"/><path d="m434 62h31v31h-31z"/><path d="m558 62h31v31h-31z"/><path d="m651 62h31v31h-31z"/><path d="m682 62h31v31h-31z"/><path d="m744 62h31v31h-31z"/><path d="m775 62h31v31h-31z"/><path d="m310 93h31v31h-31z"/><path d="m341 93h31v31h-31z"/><path d="m496 93h31v31h-31z"/><path d="m589 93h31v31h-31z"/><path d="m713 93h31v31h-31z"/><path d="m744 93h31v31h-31z"/><path d="m775 93h31v31h-31z"/><path d="m806 93h31v31h-31z"/><path d="m403 124h31v31h-31z"/><path d="m465 124h31v31h-31z"/><path d="m496 124h31v31h-31z"/><path d="m527 124h31v31h-31z"/><path d="m620 124h31v31h-31z"/><path d="m651 124h31v31h-31z"/><path d="m682 124h31v31h-31z"/><path d="m310 155h31v31h-31z"/><path d="m341 155h31v31h-31z"/><path d="m372 155h31v31h-31z"/><path d="m403 155h31v31h-31z"/><path d="m527 155h31v31h-31z"/><path d="m620 155h31v31h-31z"/><path d="m713 155h31v31h-31z"/><path d="m806 155h31v31h-31z"/><path d="m341 186h31v31h-31z"/><path d="m403 186h31v31h-31z"/><path d="m434 186h31v31h-31z"/><path d="m465 186h31v31h-31z"/><path d="m558 186h31v31h-31z"/><path d="m589 186h31v31h-31z"/><path d="m620 186h31v31h-31z"/><path d="m372 217h31v31h-31z"/><path d="m496 217h31v31h-31z"/><path d="m527 217h31v31h-31z"/><path d="m558 217h31v31h-31z"/><path d="m589 217h31v31h-31z"/><path d="m620 217h31v31h-31z"/><path d="m713 217h31v31h-31z"/><path d="m744 217h31v31h-31z"/><path d="m806 217h31v31h-31z"/><path d="m310 248h31v31h-31z"/><path d="m372 248h31v31h-31z"/><path d="m434 248h31v31h-31z"/><path d="m496 248h31v31h-31z"/><path d="m558 248h31v31h-31z"/><path d="m620 248h31v31h-31z"/><path d="m682 248h31v31h-31z"/><path d="m744 248h31v31h-31z"/><path d="m806 248h31v31h-31z"/><path d="m310 279h31v31h-31z"/><path d="m341 279h31v31h-31z"/><path d="m527 279h31v31h-31z"/><path d="m558 279h31v31h-31z"/><path d="m589 279h31v31h-31z"/><path d="m651 279h31v31h-31z"/><path d="m62 310h31v31h-31z"/><path d="m124 310h31v31h-31z"/><path d="m155 310h31v31h-31z"/><path d="m217 310h31v31h-31z"/><path d="m248 310h31v31h-31z"/><path d="m279 310h31v31h-31z"/><path d="m403 310h31v31h-31z"/><path d="m434 310h31v31h-31z"/><path d="m496 310h31v31h-31z"/><path d="m527 310h31v31h-31z"/><path d="m589 310h31v31h-31z"/><path d="m713 310h31v31h-31z"/><path d="m868 310h31v31h-31z"/><path d="m961 310h31v31h-31z"/><path d="m1023 310h31v31h-31z"/><path d="m1054 310h31v31h-31z"/><path d="m124 341h31v31h-31z"/><path d="m155 341h31v31h-31z"/><path d="m186 341h31v31h-31z"/><path d="m217 341h31v31h-31z"/><path d="m279 341h31v31h-31z"/><path d="m310 341h31v31h-31z"/><path d="m341 341h31v31h-31z"/><path d="m372 341h31v31h-31z"/><path d="m465 341h31v31h-31z"/><path d="m558 341h31v31h-31z"/><path d="m589 341h31v31h-31z"/><path d="m620 341h31v31h-31z"/><path d="m651 341h31v31h-31z"/><path d="m682 341h31v31h-31z"/><path d="m744 341h31v31h-31z"/><path d="m775 341h31v31h-31z"/><path d="m868 341h31v31h-31z"/><path d="m899 341h31v31h-31z"/><path d="m961 341h31v31h-31z"/><path d="m992 341h31v31h-31z"/><path d="m1023 341h31v31h-31z"/><path d="m1054 341h31v31h-31z"/><path d="m124 372h31v31h-31z"/><path d="m155 372h31v31h-31z"/><path d="m217 372h31v31h-31z"/><path d="m248 372h31v31h-31z"/><path d="m341 372h31v31h-31z"/><path d="m372 372h31v31h-31z"/><path d="m403 372h31v31h-31z"/><path d="m465 372h31v31h-31z"/><path d="m558 372h31v31h-31z"/><path d="m620 372h31v31h-31z"/><path d="m682 372h31v31h-31z"/><path d="m713 372h31v31h-31z"/><path d="m744 372h31v31h-31z"/><path d="m775 372h31v31h-31z"/><path d="m868 372h31v31h-31z"/><path d="m899 372h31v31h-31z"/><path d="m930 372h31v31h-31z"/><path d="m961 372h31v31h-31z"/><path d="m1023 372h31v31h-31z"/><path d="m1054 372h31v31h-31z"/><path d="m93 403h31v31h-31z"/><path d="m124 403h31v31h-31z"/><path d="m155 403h31v31h-31z"/><path d="m217 403h31v31h-31z"/><path d="m434 403h31v31h-31z"/><path d="m527 403h31v31h-31z"/><path d="m589 403h31v31h-31z"/><path d="m651 403h31v31h-31z"/><path d="m682 403h31v31h-31z"/><path d="m713 403h31v31h-31z"/><path d="m744 403h31v31h-31z"/><path d="m775 403h31v31h-31z"/><path d="m806 403h31v31h-31z"/><path d="m868 403h31v31h-31z"/><path d="m899 403h31v31h-31z"/><path d="m961 403h31v31h-31z"/><path d="m1023 403h31v31h-31z"/><path d="m93 434h31v31h-31z"/><path d="m124 434h31v31h-31z"/><path d="m217 434h31v31h-31z"/><path d="m248 434h31v31h-31z"/><path d="m310 434h31v31h-31z"/><path d="m341 434h31v31h-31z"/><path d="m496 434h31v31h-31z"/><path d="m558 434h31v31h-31z"/><path d="m682 434h31v31h-31z"/><path d="m713 434h31v31h-31z"/><path d="m744 434h31v31h-31z"/><path d="m775 434h31v31h-31z"/><path d="m837 434h31v31h-31z"/><path d="m899 434h31v31h-31z"/><path d="m930 434h31v31h-31z"/><path d="m961 434h31v31h-31z"/><path d="m1023 434h31v31h-31z"/><path d="m93 465h31v31h-31z"/><path d="m155 465h31v31h-31z"/><path d="m279 465h31v31h-31z"/><path d="m372 465h31v31h-31z"/><path d="m403 465h31v31h-31z"/><path d="m434 465h31v31h-31z"/><path d="m465 465h31v31h-31z"/><path d="m496 465h31v31h-31z"/><path d="m682 465h31v31h-31z"/><path d="m806 465h31v31h-31z"/><path d="m837 465h31v31h-31z"/><path d="m899 465h31v31h-31z"/><path d="m1023 465h31v31h-31z"/><path d="m62 496h31v31h-31z"/><path d="m186 496h31v31h-31z"/><path d="m217 496h31v31h-31z"/><path d="m248 496h31v31h-31z"/><path d="m310 496h31v31h-31z"/><path d="m341 496h31v31h-31z"/><path d="m372 496h31v31h-31z"/><path d="m496 496h31v31h-31z"/><path d="m589 496h31v31h-31z"/><path d="m620 496h31v31h-31z"/><path d="m651 496h31v31h-31z"/><path d="m682 496h31v31h-31z"/><path d="m868 496h31v31h-31z"/><path d="m899 496h31v31h-31z"/><path d="m930 496h31v31h-31z"/><path d="m992 496h31v31h-31z"/><path d="m62 527h31v31h-31z"/><path d="m93 527h31v31h-31z"/><path d="m124 527h31v31h-31z"/><path d="m155 527h31v31h-31z"/><path d="m186 527h31v31h-31z"/><path d="m341 527h31v31h-31z"/><path d="m372 527h31v31h-31z"/><path d="m465 527h31v31h-31z"/><path d="m527 527h31v31h-31z"/><path d="m620 527h31v31h-31z"/><path d="m713 527h31v31h-31z"/><path d="m775 527h31v31h-31z"/><path d="m837 527h31v31h-31z"/><path d="m868 527h31v31h-31z"/><path d="m961 527h31v31h-31z"/><path d="m992 527h31v31h-31z"/><path d="m93 558h31v31h-31z"/><path d="m155 558h31v31h-31z"/><path d="m186 558h31v31h-31z"/><path d="m217 558h31v31h-31z"/><path d="m248 558h31v31h-31z"/><path d="m310 558h31v31h-31z"/><path d="m341 558h31v31h-31z"/><path d="m372 558h31v31h-31z"/><path d="m403 558h31v31h-31z"/><path d="m620 558h31v31h-31z"/><path d="m682 558h31v31h-31z"/><path d="m713 558h31v31h-31z"/><path d="m744 558h31v31h-31z"/><path d="m837 558h31v31h-31z"/><path d="m868 558h31v31h-31z"/><path d="m930 558h31v31h-31z"/><path d="m961 558h31v31h-31z"/><path d="m992 558h31v31h-31z"/><path d="m62 589h31v31h-31z"/><path d="m93 589h31v31h-31z"/><path d="m279 589h31v31h-31z"/><path d="m310 589h31v31h-31z"/><path d="m341 589h31v31h-31z"/><path d="m403 589h31v31h-31z"/><path d="m465 589h31v31h-31z"/><path d="m496 589h31v31h-31z"/><path d="m527 589h31v31h-31z"/><path d="m620 589h31v31h-31z"/><path d="m682 589h31v31h-31z"/><path d="m744 589h31v31h-31z"/><path d="m775 589h31v31h-31z"/><path d="m868 589h31v31h-31z"/><path d="m930 589h31v31h-31z"/><path d="m961 589h31v31h-31z"/><path d="m1054 589h31v31h-31z"/><path d="m124 620h31v31h-31z"/><path d="m155 620h31v31h-31z"/><path d="m186 620h31v31h-31z"/><path d="m248 620h31v31h-31z"/><path d="m403 620h31v31h-31z"/><path d="m434 620h31v31h-31z"/><path d="m527 620h31v31h-31z"/><path d="m558 620h31v31h-31z"/><path d="m620 620h31v31h-31z"/><path d="m682 620h31v31h-31z"/><path d="m713 620h31v31h-31z"/><path d="m837 620h31v31h-31z"/><path d="m899 620h31v31h-31z"/><path d="m930 620h31v31h-31z"/><path d="m992 620h31v31h-31z"/><path d="m1023 620h31v31h-31z"/><path d="m62 651h31v31h-31z"/><path d="m124 651h31v31h-31z"/><path d="m155 651h31v31h-31z"/><path d="m186 651h31v31h-31z"/><path d="m310 651h31v31h-31z"/><path d="m341 651h31v31h-31z"/><path d="m496 651h31v31h-31z"/><path d="m527 651h31v31h-31z"/><path d="m589 651h31v31h-31z"/><path d="m620 651h31v31h-31z"/><path d="m744 651h31v31h-31z"/><path d="m806 651h31v31h-31z"/><path d="m868 651h31v31h-31z"/><path d="m930 651h31v31h-31z"/><path d="m1023 651h31v31h-31z"/><path d="m62 682h31v31h-31z"/><path d="m93 682h31v31h-31z"/><path d="m124 682h31v31h-31z"/><path d="m155 682h31v31h-31z"/><path d="m186 682h31v31h-31z"/><path d="m217 682h31v31h-31z"/><path d="m248 682h31v31h-31z"/><path d="m310 682h31v31h-31z"/><path d="m341 682h31v31h-31z"/><path d="m372 682h31v31h-31z"/><path d="m496 682h31v31h-31z"/><path d="m527 682h31v31h-31z"/><path d="m558 682h31v31h-31z"/><path d="m651 682h31v31h-31z"/><path d="m744 682h31v31h-31z"/><path d="m961 682h31v31h-31z"/><path d="m992 682h31v31h-31z"/><path d="m1023 682h31v31h-31z"/><path d="m62 713h31v31h-31z"/><path d="m93 713h31v31h-31z"/><path d="m155 713h31v31h-31z"/><path d="m186 713h31v31h-31z"/><path d="m341 713h31v31h-31z"/><path d="m527 713h31v31h-31z"/><path d="m558 713h31v31h-31z"/><path d="m682 713h31v31h-31z"/><path d="m744 713h31v31h-31z"/><path d="m775 713h31v31h-31z"/><path d="m868 713h31v31h-31z"/><path d="m961 713h31v31h-31z"/><path d="m1054 713h31v31h-31z"/><path d="m217 744h31v31h-31z"/><path d="m248 744h31v31h-31z"/><path d="m341 744h31v31h-31z"/><path d="m372 744h31v31h-31z"/><path d="m403 744h31v31h-31z"/><path d="m434 744h31v31h-31z"/><path d="m465 744h31v31h-31z"/><path d="m527 744h31v31h-31z"/><path d="m651 744h31v31h-31z"/><path d="m682 744h31v31h-31z"/><path d="m744 744h31v31h-31z"/><path d="m775 744h31v31h-31z"/><path d="m806 744h31v31h-31z"/><path d="m837 744h31v31h-31z"/><path d="m868 744h31v31h-31z"/><path d="m899 744h31v31h-31z"/><path d="m930 744h31v31h-31z"/><path d="m992 744h31v31h-31z"/><path d="m1023 744h31v31h-31z"/><path d="m1054 744h31v31h-31z"/><path d="m93 775h31v31h-31z"/><path d="m155 775h31v31h-31z"/><path d="m186 775h31v31h-31z"/><path d="m279 775h31v31h-31z"/><path d="m341 775h31v31h-31z"/><path d="m434 775h31v31h-31z"/><path d="m496 775h31v31h-31z"/><path d="m527 775h31v31h-31z"/><path d="m682 775h31v31h-31z"/><path d="m744 775h31v31h-31z"/><path d="m775 775h31v31h-31z"/><path d="m806 775h31v31h-31z"/><path d="m868 775h31v31h-31z"/><path d="m930 775h31v31h-31z"/><path d="m62 806h31v31h-31z"/><path d="m155 806h31v31h-31z"/><path d="m186 806h31v31h-31z"/><path d="m248 806h31v31h-31z"/><path d="m279 806h31v31h-31z"/><path d="m465 806h31v31h-31z"/><path d="m496 806h31v31h-31z"/><path d="m589 806h31v31h-31z"/><path d="m651 806h31v31h-31z"/><path d="m744 806h31v31h-31z"/><path d="m775 806h31v31h-31z"/><path d="m806 806h31v31h-31z"/><path d="m837 806h31v31h-31z"/><path d="m868 806h31v31h-31z"/><path d="m899 806h31v31h-31z"/><path d="m930 806h31v31h-31z"/><path d="m1023 806h31v31h-31z"/><path d="m1054 806h31v31h-31z"/><path d="m310 837h31v31h-31z"/><path d="m403 837h31v31h-31z"/><path d="m434 837h31v31h-31z"/><path d="m465 837h31v31h-31z"/><path d="m496 837h31v31h-31z"/><path d="m527 837h31v31h-31z"/><path d="m558 837h31v31h-31z"/><path d="m620 837h31v31h-31z"/><path d="m651 837h31v31h-31z"/><path d="m713 837h31v31h-31z"/><path d="m806 837h31v31h-31z"/><path d="m930 837h31v31h-31z"/><path d="m961 837h31v31h-31z"/><path d="m1023 837h31v31h-31z"/><path d="m310 868h31v31h-31z"/><path d="m341 868h31v31h-31z"/><path d="m434 868h31v31h-31z"/><path d="m589 868h31v31h-31z"/><path d="m620 868h31v31h-31z"/><path d="m651 868h31v31h-31z"/><path d="m713 868h31v31h-31z"/><path d="m775 868h31v31h-31z"/><path d="m806 868h31v31h-31z"/><path d="m868 868h31v31h-31z"/><path d="m930 868h31v31h-31z"/><path d="m310 899h31v31h-31z"/><path d="m558 899h31v31h-31z"/><path d="m589 899h31v31h-31z"/><path d="m620 899h31v31h-31z"/><path d="m651 899h31v31h-31z"/><path d="m775 899h31v31h-31z"/><path d="m806 899h31v31h-31z"/><path d="m930 899h31v31h-31z"/><path d="m961 899h31v31h-31z"/><path d="m992 899h31v31h-31z"/><path d="m341 930h31v31h-31z"/><path d="m403 930h31v31h-31z"/><path d="m465 930h31v31h-31z"/><path d="m496 930h31v31h-31z"/><path d="m527 930h31v31h-31z"/><path d="m558 930h31v31h-31z"/><path d="m589 930h31v31h-31z"/><path d="m620 930h31v31h-31z"/><path d="m744 930h31v31h-31z"/><path d="m775 930h31v31h-31z"/><path d="m806 930h31v31h-31z"/><path d="m837 930h31v31h-31z"/><path d="m868 930h31v31h-31z"/><path d="m899 930h31v31h-31z"/><path d="m930 930h31v31h-31z"/><path d="m992 930h31v31h-31z"/><path d="m1023 930h31v31h-31z"/><path d="m1054 930h31v31h-31z"/><path d="m310 961h31v31h-31z"/><path d="m434 961h31v31h-31z"/><path d="m496 961h31v31h-31z"/><path d="m558 961h31v31h-31z"/><path d="m651 961h31v31h-31z"/><path d="m744 961h31v31h-31z"/><path d="m775 961h31v31h-31z"/><path d="m806 961h31v31h-31z"/><path d="m899 961h31v31h-31z"/><path d="m961 961h31v31h-31z"/><path d="m992 961h31v31h-31z"/><path d="m1023 961h31v31h-31z"/><path d="m1054 961h31v31h-31z"/><path d="m310 992h31v31h-31z"/><path d="m341 992h31v31h-31z"/><path d="m372 992h31v31h-31z"/><path d="m465 992h31v31h-31z"/><path d="m496 992h31v31h-31z"/><path d="m527 992h31v31h-31z"/><path d="m558 992h31v31h-31z"/><path d="m682 992h31v31h-31z"/><path d="m713 992h31v31h-31z"/><path d="m744 992h31v31h-31z"/><path d="m775 992h31v31h-31z"/><path d="m806 992h31v31h-31z"/><path d="m837 992h31v31h-31z"/><path d="m868 992h31v31h-31z"/><path d="m899 992h31v31h-31z"/><path d="m961 992h31v31h-31z"/><path d="m372 1023h31v31h-31z"/><path d="m403 1023h31v31h-31z"/><path d="m496 1023h31v31h-31z"/><path d="m589 1023h31v31h-31z"/><path d="m620 1023h31v31h-31z"/><path d="m682 1023h31v31h-31z"/><path d="m744 1023h31v31h-31z"/><path d="m775 1023h31v31h-31z"/><path d="m806 1023h31v31h-31z"/><path d="m899 1023h31v31h-31z"/><path d="m930 1023h31v31h-31z"/><path d="m1054 1023h31v31h-31z"/><path d="m310 1054h31v31h-31z"/><path d="m341 1054h31v31h-31z"/><path d="m372 1054h31v31h-31z"/><path d="m403 1054h31v31h-31z"/><path d="m558 1054h31v31h-31z"/><path d="m589 1054h31v31h-31z"/><path d="m651 1054h31v31h-31z"/><path d="m713 1054h31v31h-31z"/><path d="m775 1054h31v31h-31z"/><path d="m930 1054h31v31h-31z"/><path d="m961 1054h31v31h-31z"/><path d="m992 1054h31v31h-31z"/></g><g transform="matrix(2.17 0 0 2.17 62 62)"><path d="m15 15h70v70h-70z" fill="none"/><path d="m85 0h-70-15v15 70 15h15 70 15v-15-70-15zm0 85h-70v-70h70z"/></g><g transform="matrix(2.17 0 0 2.17 868 62)"><path d="m15 15h70v70h-70z" fill="none"/><path d="m85 0h-70-15v15 70 15h15 70 15v-15-70-15zm0 85h-70v-70h70z"/></g><g transform="matrix(2.17 0 0 2.17 62 868)"><path d="m15 15h70v70h-70z" fill="none"/><path d="m85 0h-70-15v15 70 15h15 70 15v-15-70-15zm0 85h-70v-70h70z"/></g><path d="m124 124h93v93h-93z" stroke-width=".93"/><path d="m930 124h93v93h-93z" stroke-width=".93"/><path d="m124 930h93v93h-93z" stroke-width=".93"/></svg>