<svg enable-background="new 0 0 1160 1160" height="1160" viewBox="0 0 1160 1160" width="1160" xmlns="http://www.w3.org/2000/svg"><path d="m0 0h1160v1160h-1160z" fill="#fff"/><g stroke-width=".4"><path d="m400 80h40v40h-40z"/><path d="m440 80h40v40h-40z"/><path d="m520 80h40v40h-40z"/><path d="m560 80h40v40h-40z"/><path d="m600 80h40v40h-40z"/><path d="m400 120h40v40h-40z"/><path d="m400 160h40v40h-40z"/><path d="m480 160h40v40h-40z"/><path d="m520 160h40v40h-40z"/><path d="m560 160h40v40h-40z"/><path d="m600 160h40v40h-40z"/><path d="m680 160h40v40h-40z"/><path d="m560 200h40v40h-40z"/><path d="m600 200h40v40h-40z"/><path d="m680 200h40v40h-40z"/><path d="m720 200h40v40h-40z"/><path d="m400 240h40v40h-40z"/><path d="m440 240h40v40h-40z"/><path d="m560 240h40v40h-40z"/><path d="m720 240h40v40h-40z"/><path d="m520 280h40v40h-40z"/><path d="m600 280h40v40h-40z"/><path d="m400 320h40v40h-40z"/><path d="m480 320h40v40h-40z"/><path d="m560 320h40v40h-40z"/><path d="m640 320h40v40h-40z"/><path d="m720 320h40v40h-40z"/><path d="m480 360h40v40h-40z"/><path d="m520 360h40v40h-40z"/><path d="m600 360h40v40h-40z"/><path d="m640 360h40v40h-40z"/><path d="m680 360h40v40h-40z"/><path d="m720 360h40v40h-40z"/><path d="m80 400h40v40h-40z"/><path d="m200 400h40v40h-40z"/><path d="m240 400h40v40h-40z"/><path d="m280 400h40v40h-40z"/><path d="m320 400h40v40h-40z"/><path d="m360 400h40v40h-40z"/><path d="m400 400h40v40h-40z"/><path d="m480 400h40v40h-40z"/><path d="m640 400h40v40h-40z"/><path d="m680 400h40v40h-40z"/><path d="m720 400h40v40h-40z"/><path d="m760 400h40v40h-40z"/><path d="m880 400h40v40h-40z"/><path d="m960 400h40v40h-40z"/><path d="m1000 400h40v40h-40z"/><path d="m1040 400h40v40h-40z"/><path d="m80 440h40v40h-40z"/><path d="m120 440h40v40h-40z"/><path d="m160 440h40v40h-40z"/><path d="m200 440h40v40h-40z"/><path d="m240 440h40v40h-40z"/><path d="m360 440h40v40h-40z"/><path d="m440 440h40v40h-40z"/><path d="m520 440h40v40h-40z"/><path d="m560 440h40v40h-40z"/><path d="m640 440h40v40h-40z"/><path d="m680 440h40v40h-40z"/><path d="m840 440h40v40h-40z"/><path d="m880 440h40v40h-40z"/><path d="m920 440h40v40h-40z"/><path d="m960 440h40v40h-40z"/><path d="m1000 440h40v40h-40z"/><path d="m80 480h40v40h-40z"/><path d="m200 480h40v40h-40z"/><path d="m320 480h40v40h-40z"/><path d="m360 480h40v40h-40z"/><path d="m440 480h40v40h-40z"/><path d="m520 480h40v40h-40z"/><path d="m560 480h40v40h-40z"/><path d="m680 480h40v40h-40z"/><path d="m840 480h40v40h-40z"/><path d="m920 480h40v40h-40z"/><path d="m1040 480h40v40h-40z"/><path d="m120 520h40v40h-40z"/><path d="m160 520h40v40h-40z"/><path d="m200 520h40v40h-40z"/><path d="m240 520h40v40h-40z"/><path d="m280 520h40v40h-40z"/><path d="m360 520h40v40h-40z"/><path d="m480 520h40v40h-40z"/><path d="m520 520h40v40h-40z"/><path d="m680 520h40v40h-40z"/><path d="m920 520h40v40h-40z"/><path d="m960 520h40v40h-40z"/><path d="m1000 520h40v40h-40z"/><path d="m1040 520h40v40h-40z"/><path d="m160 560h40v40h-40z"/><path d="m200 560h40v40h-40z"/><path d="m240 560h40v40h-40z"/><path d="m320 560h40v40h-40z"/><path d="m360 560h40v40h-40z"/><path d="m440 560h40v40h-40z"/><path d="m640 560h40v40h-40z"/><path d="m720 560h40v40h-40z"/><path d="m800 560h40v40h-40z"/><path d="m1040 560h40v40h-40z"/><path d="m80 600h40v40h-40z"/><path d="m120 600h40v40h-40z"/><path d="m240 600h40v40h-40z"/><path d="m480 600h40v40h-40z"/><path d="m560 600h40v40h-40z"/><path d="m640 600h40v40h-40z"/><path d="m680 600h40v40h-40z"/><path d="m760 600h40v40h-40z"/><path d="m880 600h40v40h-40z"/><path d="m1000 600h40v40h-40z"/><path d="m80 640h40v40h-40z"/><path d="m120 640h40v40h-40z"/><path d="m160 640h40v40h-40z"/><path d="m200 640h40v40h-40z"/><path d="m320 640h40v40h-40z"/><path d="m440 640h40v40h-40z"/><path d="m640 640h40v40h-40z"/><path d="m680 640h40v40h-40z"/><path d="m720 640h40v40h-40z"/><path d="m760 640h40v40h-40z"/><path d="m800 640h40v40h-40z"/><path d="m880 640h40v40h-40z"/><path d="m920 640h40v40h-40z"/><path d="m960 640h40v40h-40z"/><path d="m1000 640h40v40h-40z"/><path d="m1040 640h40v40h-40z"/><path d="m80 680h40v40h-40z"/><path d="m200 680h40v40h-40z"/><path d="m280 680h40v40h-40z"/><path d="m400 680h40v40h-40z"/><path d="m440 680h40v40h-40z"/><path d="m480 680h40v40h-40z"/><path d="m560 680h40v40h-40z"/><path d="m640 680h40v40h-40z"/><path d="m840 680h40v40h-40z"/><path d="m920 680h40v40h-40z"/><path d="m960 680h40v40h-40z"/><path d="m1040 680h40v40h-40z"/><path d="m80 720h40v40h-40z"/><path d="m240 720h40v40h-40z"/><path d="m280 720h40v40h-40z"/><path d="m320 720h40v40h-40z"/><path d="m360 720h40v40h-40z"/><path d="m400 720h40v40h-40z"/><path d="m440 720h40v40h-40z"/><path d="m480 720h40v40h-40z"/><path d="m520 720h40v40h-40z"/><path d="m560 720h40v40h-40z"/><path d="m600 720h40v40h-40z"/><path d="m680 720h40v40h-40z"/><path d="m720 720h40v40h-40z"/><path d="m760 720h40v40h-40z"/><path d="m800 720h40v40h-40z"/><path d="m840 720h40v40h-40z"/><path d="m880 720h40v40h-40z"/><path d="m960 720h40v40h-40z"/><path d="m1000 720h40v40h-40z"/><path d="m400 760h40v40h-40z"/><path d="m440 760h40v40h-40z"/><path d="m520 760h40v40h-40z"/><path d="m640 760h40v40h-40z"/><path d="m680 760h40v40h-40z"/><path d="m720 760h40v40h-40z"/><path d="m880 760h40v40h-40z"/><path d="m960 760h40v40h-40z"/><path d="m1000 760h40v40h-40z"/><path d="m400 800h40v40h-40z"/><path d="m440 800h40v40h-40z"/><path d="m480 800h40v40h-40z"/><path d="m560 800h40v40h-40z"/><path d="m640 800h40v40h-40z"/><path d="m720 800h40v40h-40z"/><path d="m800 800h40v40h-40z"/><path d="m880 800h40v40h-40z"/><path d="m1040 800h40v40h-40z"/><path d="m400 840h40v40h-40z"/><path d="m440 840h40v40h-40z"/><path d="m520 840h40v40h-40z"/><path d="m600 840h40v40h-40z"/><path d="m640 840h40v40h-40z"/><path d="m680 840h40v40h-40z"/><path d="m720 840h40v40h-40z"/><path d="m880 840h40v40h-40z"/><path d="m1040 840h40v40h-40z"/><path d="m400 880h40v40h-40z"/><path d="m480 880h40v40h-40z"/><path d="m520 880h40v40h-40z"/><path d="m560 880h40v40h-40z"/><path d="m640 880h40v40h-40z"/><path d="m680 880h40v40h-40z"/><path d="m720 880h40v40h-40z"/><path d="m760 880h40v40h-40z"/><path d="m800 880h40v40h-40z"/><path d="m840 880h40v40h-40z"/><path d="m880 880h40v40h-40z"/><path d="m400 920h40v40h-40z"/><path d="m480 920h40v40h-40z"/><path d="m560 920h40v40h-40z"/><path d="m680 920h40v40h-40z"/><path d="m720 920h40v40h-40z"/><path d="m760 920h40v40h-40z"/><path d="m800 920h40v40h-40z"/><path d="m1000 920h40v40h-40z"/><path d="m1040 920h40v40h-40z"/><path d="m480 960h40v40h-40z"/><path d="m520 960h40v40h-40z"/><path d="m760 960h40v40h-40z"/><path d="m880 960h40v40h-40z"/><path d="m920 960h40v40h-40z"/><path d="m960 960h40v40h-40z"/><path d="m1000 960h40v40h-40z"/><path d="m1040 960h40v40h-40z"/><path d="m640 1000h40v40h-40z"/><path d="m760 1000h40v40h-40z"/><path d="m840 1000h40v40h-40z"/><path d="m880 1000h40v40h-40z"/><path d="m960 1000h40v40h-40z"/><path d="m1000 1000h40v40h-40z"/><path d="m1040 1000h40v40h-40z"/><path d="m400 1040h40v40h-40z"/><path d="m560 1040h40v40h-40z"/><path d="m640 1040h40v40h-40z"/><path d="m720 1040h40v40h-40z"/><path d="m800 1040h40v40h-40z"/><path d="m920 1040h40v40h-40z"/><path d="m1040 1040h40v40h-40z"/></g><g transform="matrix(2.8 0 0 2.8 80 80)"><path d="m15 15h70v70h-70z" fill="none"/><path d="m85 0h-70-15v15 70 15h15 70 15v-15-70-15zm0 85h-70v-70h70z"/></g><g transform="matrix(2.8 0 0 2.8 800 80)"><path d="m15 15h70v70h-70z" fill="none"/><path d="m85 0h-70-15v15 70 15h15 70 15v-15-70-15zm0 85h-70v-70h70z"/></g><g transform="matrix(2.8 0 0 2.8 80 800)"><path d="m15 15h70v70h-70z" fill="none"/><path d="m85 0h-70-15v15 70 15h15 70 15v-15-70-15zm0 85h-70v-70h70z"/></g><path d="m160 160h120v120h-120z" stroke-width="1.2"/><path d="m880 160h120v120h-120z" stroke-width="1.2"/><path d="m160 880h120v120h-120z" stroke-width="1.2"/></svg>